PathFileType	4	(X/Y/Z)	TRC_standard
DataRate	CameraRate	NumFrames	NumMarkers	Units	OrigDataRate	OrigDataStartFrame	OrigNumFrames
100.00	100.00	       7	33	mm	100.00	838	       2234
Frame#	Time	T10			C7			CLAV			RACR1			LACR1			RPSI			LPSI			RASI			LASI			LTH2			LTH1			RTH2			RTH3			RTH1			RLFC			RTB1			RTB3			RTB2			LLFC			LTB1			LTB3			LTB2			LLMAL			LMMAL			RLMAL			RCAL			RMT5			RMT1			LMT5			LMT1			LTH3			LCAL			LToe			
		X1	Y1	Z1	X2	Y2	Z2	X3	Y3	Z3	X4	Y4	Z4	X5	Y5	Z5	X6	Y6	Z6	X7	Y7	Z7	X8	Y8	Z8	X9	Y9	Z9	X10	Y10	Z10	X11	Y11	Z11	X12	Y12	Z12	X13	Y13	Z13	X14	Y14	Z14	X15	Y15	Z15	X16	Y16	Z16	X17	Y17	Z17	X18	Y18	Z18	X19	Y19	Z19	X20	Y20	Z20	X21	Y21	Z21	X22	Y22	Z22	X23	Y23	Z23	X24	Y24	Z24	X25	Y25	Z25	X26	Y26	Z26	X27	Y27	Z27	X28	Y28	Z28	X29	Y29	Z29	X30	Y30	Z30	X31	Y31	Z31	X32	Y32	Z32	X33	Y33	Z33	
838	8.370000	716.478088	1242.566650	-612.059082	712.613892	1504.931641	-499.505280	724.518738	1351.255371	-397.433472	555.870789	1452.676392	-467.020935	892.017578	1450.622070	-489.367004	654.601318	1031.056274	-673.251160	742.778259	1031.355469	-674.203491	586.968933	999.140808	-437.641632	840.799683	995.911438	-443.242310	892.090637	717.847351	-471.638672	868.986023	865.486023	-454.217041	594.927490	724.107666	-414.384430	542.843384	787.577576	-448.650391	608.574341	840.726135	-411.199371	592.808350	506.195557	-473.539520	647.393188	397.808258	-441.147034	623.781677	318.277313	-462.907257	652.504517	268.262665	-459.885925	884.025085	506.928772	-531.313843	845.058716	389.059662	-554.159729	863.749451	357.684082	-623.090576	827.557495	308.799683	-646.173340	829.549072	214.454132	-831.324890	770.419800	228.295242	-885.859009	642.037659	77.944801	-521.865601	681.371582	37.699139	-588.927124	648.440613	44.388874	-412.719269	729.479553	47.735733	-390.337311	852.381836	91.344810	-811.448608	789.728821	72.382843	-778.238098	911.924255	783.903320	-507.905701	0.000000	0.000000	0.000000	0.000000	0.000000	0.000000	
839	8.380000	715.536133	1243.018188	-612.324097	712.054138	1505.435303	-499.771088	724.396545	1351.813843	-397.832001	555.470642	1453.283447	-466.875000	891.600830	1451.101318	-490.446167	654.300720	1031.372437	-673.547241	742.457031	1031.402344	-674.460449	586.096252	999.592651	-437.947754	839.954224	996.662720	-443.258331	892.925659	719.904724	-466.113037	868.483704	867.167786	-452.856903	594.023926	723.120300	-417.256226	542.109070	787.166138	-450.806488	607.502075	839.981140	-412.451599	592.175903	505.720184	-479.135864	646.834656	397.192261	-447.471771	623.387451	317.772827	-469.728241	652.273682	267.801270	-467.032379	884.467712	507.887146	-521.720520	845.754272	389.915314	-542.823730	864.193054	357.948151	-611.593567	828.011292	308.821503	-633.974792	829.409119	212.709137	-818.423584	769.574463	223.742828	-873.325439	642.261047	78.021126	-530.151184	681.468628	37.792381	-597.254272	648.289307	44.431591	-421.035126	729.403320	47.747826	-398.484100	855.419495	92.355171	-793.965515	793.443237	72.573296	-759.632507	912.041260	785.353149	-504.345825	0.000000	0.000000	0.000000	0.000000	0.000000	0.000000	
840	8.390000	714.635742	1243.398071	-612.681702	711.528015	1505.870239	-500.135742	724.314636	1352.302979	-398.327881	555.101501	1453.817993	-466.837036	891.218994	1451.505005	-491.641663	654.101807	1031.612671	-673.933411	742.235657	1031.402222	-674.787476	585.249146	999.962952	-438.367157	839.135864	997.357910	-443.324585	893.623901	721.969727	-460.783081	867.988342	868.795959	-451.572845	593.169983	722.112122	-420.208862	541.430054	786.713745	-453.054779	606.480652	839.192139	-413.801697	591.580627	505.241241	-484.787170	646.293518	396.570923	-453.845276	623.013977	317.270355	-476.601837	652.061218	267.338226	-474.231995	884.757141	508.948151	-512.282837	846.269958	390.867493	-531.420898	864.560120	358.111603	-599.851440	828.375610	308.691071	-621.401550	829.435669	210.167328	-804.718201	769.054565	218.137207	-860.037537	642.477417	78.091141	-538.460999	681.559937	37.884396	-605.611389	648.151794	44.467758	-429.383148	729.315918	47.763779	-406.682373	858.428406	92.815636	-775.145508	797.095886	72.476860	-739.833374	912.172302	786.780823	-500.871857	0.000000	0.000000	0.000000	0.000000	0.000000	0.000000	
841	8.400000	713.778931	1243.703979	-613.127625	711.034485	1506.233398	-500.594452	724.268127	1352.721069	-398.914856	554.761353	1454.277100	-466.902802	890.869446	1451.831665	-492.942627	654.003845	1031.776855	-674.402649	742.113770	1031.354126	-675.177856	584.431091	1000.251282	-438.892975	838.346924	997.994080	-443.436859	894.160217	724.016541	-455.697266	867.498596	870.360779	-450.362854	592.371765	721.088501	-423.225311	540.811829	786.223694	-455.379730	605.515625	838.363525	-415.237305	591.026428	504.760712	-490.471924	645.774414	395.943268	-460.249939	622.663147	316.769440	-483.512054	651.868042	266.872162	-481.471191	884.887817	510.099487	-503.044556	846.603333	391.912323	-519.997864	864.851929	358.176727	-587.902405	828.656921	308.412689	-608.491394	829.647217	206.854385	-790.218872	768.888855	211.545624	-845.973389	642.681458	78.153862	-546.787537	681.640564	37.977142	-613.993286	648.026917	44.496651	-437.756622	729.218933	47.780399	-414.924957	861.381470	92.746811	-755.093018	800.649109	72.115906	-718.976379	912.304504	788.157288	-497.525574	0.000000	0.000000	0.000000	0.000000	0.000000	0.000000	
842	8.410000	712.967590	1243.934692	-613.657227	710.572266	1506.522583	-501.141785	724.252258	1353.066528	-399.586090	554.448425	1454.657959	-467.067200	890.549683	1452.080322	-494.337646	654.004944	1031.865479	-674.947876	742.089722	1031.257080	-675.625122	583.645630	1000.457825	-439.517944	837.590088	998.568909	-443.591248	894.515747	726.022156	-450.889832	867.013794	871.853210	-449.224548	591.634583	720.053772	-426.289917	540.259155	785.698730	-457.766479	604.612061	837.499084	-416.746307	590.516663	504.279785	-496.171021	645.281128	395.308563	-466.669769	622.336304	316.269775	-490.444000	651.694580	266.402130	-488.737274	884.857849	511.326691	-494.046478	846.754761	393.044891	-508.600128	865.070618	358.148102	-575.785217	828.862610	307.995239	-595.284424	830.055664	202.813721	-774.940674	769.093384	204.052933	-831.115662	642.868530	78.208809	-555.124146	681.706421	38.072430	-622.394958	647.912720	44.518326	-446.149384	729.113403	47.795979	-423.204498	864.259277	92.190117	-733.923889	804.074524	71.524963	-697.197754	912.428589	789.458618	-494.336243	0.000000	0.000000	0.000000	0.000000	0.000000	0.000000	
843	8.420000	712.203247	1244.088989	-614.265625	710.140381	1506.736084	-501.771820	724.262451	1353.338501	-400.334503	554.161072	1454.958496	-467.324493	890.257324	1452.250244	-495.814972	654.102112	1031.879150	-675.562012	742.160828	1031.109985	-676.123169	582.896667	1000.583069	-440.234222	836.868103	999.080444	-443.784058	894.679016	727.966797	-446.380676	866.534363	873.264832	-448.155273	590.963379	719.011414	-429.388580	539.776428	785.141052	-460.201263	603.774780	836.601807	-418.317322	590.054138	503.799225	-501.867706	644.816956	394.666107	-473.090332	622.034485	315.771027	-497.384247	651.540833	265.927338	-496.018524	884.668884	512.613464	-485.326141	846.727539	394.259460	-497.271881	865.219055	358.032806	-563.538452	829.000061	307.451965	-581.822876	830.666260	198.105362	-758.904480	769.670959	195.759308	-815.453247	643.035034	78.255997	-563.465332	681.754395	38.172012	-630.811462	647.807007	44.533371	-454.556183	729.000122	47.809971	-431.513794	867.049500	91.205032	-711.765625	807.352539	70.749474	-674.631348	912.538696	790.667786	-491.319183	0.000000	0.000000	0.000000	0.000000	0.000000	0.000000	
844	8.430000	711.487244	1244.166626	-614.947632	709.737732	1506.872437	-502.478088	724.294250	1353.536011	-401.152710	553.897766	1455.177246	-467.668274	889.989990	1452.341187	-497.362549	654.291260	1031.818604	-676.238220	742.323425	1030.911255	-676.666260	582.188049	1000.627991	-441.033722	836.184143	999.527283	-444.011963	894.645630	729.833496	-442.176605	866.061401	874.587891	-447.152191	590.362366	717.964233	-432.508820	539.367371	784.552490	-462.671326	603.007996	835.674194	-419.939545	589.641113	503.319122	-507.547638	644.384705	394.015381	-479.498901	621.758179	315.273010	-504.320923	651.406433	265.447327	-503.304352	884.325989	513.942078	-476.917419	846.527222	395.549500	-486.055603	865.300537	357.840179	-551.201111	829.076294	306.800415	-568.150696	831.476868	192.804428	-742.137268	770.611572	186.777969	-798.982849	643.178223	78.295982	-571.806458	681.782104	38.277756	-639.238342	647.707153	44.542690	-462.972595	728.879578	47.822651	-439.846161	869.745728	89.865387	-688.757935	810.470642	69.844116	-651.406616	912.630676	791.775574	-488.476929	0.000000	0.000000	0.000000	0.000000	0.000000	0.000000	
